<mxfile host="app.diagrams.net" modified="2021-09-28T08:00:02.103Z" agent="5.0 (Windows NT 10.0; Win64; x64) AppleWebKit/537.36 (KHTML, like Gecko) Chrome/93.0.4577.82 Safari/537.36" etag="jk3iWzbvULRJEVCJSZw3" version="13.6.2" type="github">
  <diagram id="TrsP6WNKlTPHFqQmOpyP" name="Page-1">
    <mxGraphModel dx="1802" dy="773" grid="1" gridSize="10" guides="1" tooltips="1" connect="1" arrows="1" fold="1" page="1" pageScale="1" pageWidth="827" pageHeight="1169" math="0" shadow="0">
      <root>
        <mxCell id="0" />
        <mxCell id="1" parent="0" />
        <mxCell id="nNUtYWoHHe47jqBRKhcS-1" value="" style="shape=datastore;whiteSpace=wrap;html=1;" vertex="1" parent="1">
          <mxGeometry x="280" y="260" width="160" height="150" as="geometry" />
        </mxCell>
        <mxCell id="nNUtYWoHHe47jqBRKhcS-2" value="" style="rounded=0;whiteSpace=wrap;html=1;" vertex="1" parent="1">
          <mxGeometry x="300" y="440" width="790" height="360" as="geometry" />
        </mxCell>
        <mxCell id="nNUtYWoHHe47jqBRKhcS-172" value="" style="group" vertex="1" connectable="0" parent="1">
          <mxGeometry x="718" y="459" width="350" height="300" as="geometry" />
        </mxCell>
        <mxCell id="nNUtYWoHHe47jqBRKhcS-119" value="" style="ellipse;whiteSpace=wrap;html=1;aspect=fixed;rotation=-180;fillColor=#ffcc99;strokeColor=#36393d;" vertex="1" parent="nNUtYWoHHe47jqBRKhcS-172">
          <mxGeometry x="310" y="200" width="40" height="40" as="geometry" />
        </mxCell>
        <mxCell id="nNUtYWoHHe47jqBRKhcS-120" style="edgeStyle=none;rounded=0;orthogonalLoop=1;jettySize=auto;html=1;exitX=1;exitY=0.5;exitDx=0;exitDy=0;endArrow=none;endFill=0;endSize=1;startArrow=classicThin;startFill=1;startSize=4;" edge="1" parent="nNUtYWoHHe47jqBRKhcS-172" source="nNUtYWoHHe47jqBRKhcS-121">
          <mxGeometry relative="1" as="geometry">
            <mxPoint x="240" y="240" as="targetPoint" />
          </mxGeometry>
        </mxCell>
        <mxCell id="nNUtYWoHHe47jqBRKhcS-121" value="" style="ellipse;whiteSpace=wrap;html=1;aspect=fixed;rotation=-180;fillColor=#ffcc99;strokeColor=#36393d;" vertex="1" parent="nNUtYWoHHe47jqBRKhcS-172">
          <mxGeometry x="310" y="135" width="40" height="40" as="geometry" />
        </mxCell>
        <mxCell id="nNUtYWoHHe47jqBRKhcS-122" style="edgeStyle=none;rounded=0;orthogonalLoop=1;jettySize=auto;html=1;exitX=1;exitY=0.5;exitDx=0;exitDy=0;endArrow=none;endFill=0;endSize=1;startArrow=classicThin;startFill=1;startSize=4;" edge="1" parent="nNUtYWoHHe47jqBRKhcS-172" source="nNUtYWoHHe47jqBRKhcS-123">
          <mxGeometry relative="1" as="geometry">
            <mxPoint x="240" y="240" as="targetPoint" />
          </mxGeometry>
        </mxCell>
        <mxCell id="nNUtYWoHHe47jqBRKhcS-123" value="" style="ellipse;whiteSpace=wrap;html=1;aspect=fixed;rotation=-180;fillColor=#ffcc99;strokeColor=#36393d;" vertex="1" parent="nNUtYWoHHe47jqBRKhcS-172">
          <mxGeometry x="310" y="70" width="40" height="40" as="geometry" />
        </mxCell>
        <mxCell id="nNUtYWoHHe47jqBRKhcS-124" value="" style="ellipse;whiteSpace=wrap;html=1;aspect=fixed;rotation=-180;fillColor=#ffcc99;strokeColor=#36393d;" vertex="1" parent="nNUtYWoHHe47jqBRKhcS-172">
          <mxGeometry x="310" width="40" height="40" as="geometry" />
        </mxCell>
        <mxCell id="nNUtYWoHHe47jqBRKhcS-125" value="" style="ellipse;whiteSpace=wrap;html=1;aspect=fixed;rotation=-180;fillColor=#ffcc99;strokeColor=#36393d;" vertex="1" parent="nNUtYWoHHe47jqBRKhcS-172">
          <mxGeometry x="310" y="260" width="40" height="40" as="geometry" />
        </mxCell>
        <mxCell id="nNUtYWoHHe47jqBRKhcS-126" value="" style="ellipse;whiteSpace=wrap;html=1;aspect=fixed;rotation=-180;fillColor=#cdeb8b;strokeColor=#36393d;" vertex="1" parent="nNUtYWoHHe47jqBRKhcS-172">
          <mxGeometry x="200" y="222" width="40" height="40" as="geometry" />
        </mxCell>
        <mxCell id="nNUtYWoHHe47jqBRKhcS-127" style="edgeStyle=none;rounded=0;orthogonalLoop=1;jettySize=auto;html=1;entryX=0;entryY=0.5;entryDx=0;entryDy=0;exitX=1;exitY=0.5;exitDx=0;exitDy=0;endArrow=none;endFill=0;endSize=1;startArrow=classicThin;startFill=1;startSize=4;" edge="1" parent="nNUtYWoHHe47jqBRKhcS-172" source="nNUtYWoHHe47jqBRKhcS-119" target="nNUtYWoHHe47jqBRKhcS-126">
          <mxGeometry relative="1" as="geometry" />
        </mxCell>
        <mxCell id="nNUtYWoHHe47jqBRKhcS-128" style="edgeStyle=none;rounded=0;orthogonalLoop=1;jettySize=auto;html=1;exitX=1;exitY=0.5;exitDx=0;exitDy=0;entryX=0;entryY=0.5;entryDx=0;entryDy=0;endArrow=none;endFill=0;endSize=1;startArrow=classicThin;startFill=1;startSize=4;" edge="1" parent="nNUtYWoHHe47jqBRKhcS-172" source="nNUtYWoHHe47jqBRKhcS-124" target="nNUtYWoHHe47jqBRKhcS-126">
          <mxGeometry relative="1" as="geometry" />
        </mxCell>
        <mxCell id="nNUtYWoHHe47jqBRKhcS-129" value="" style="ellipse;whiteSpace=wrap;html=1;aspect=fixed;rotation=-180;fillColor=#cdeb8b;strokeColor=#36393d;" vertex="1" parent="nNUtYWoHHe47jqBRKhcS-172">
          <mxGeometry x="200" y="155" width="40" height="40" as="geometry" />
        </mxCell>
        <mxCell id="nNUtYWoHHe47jqBRKhcS-130" value="" style="ellipse;whiteSpace=wrap;html=1;aspect=fixed;rotation=-180;fillColor=#cdeb8b;strokeColor=#36393d;" vertex="1" parent="nNUtYWoHHe47jqBRKhcS-172">
          <mxGeometry x="200" y="92" width="40" height="40" as="geometry" />
        </mxCell>
        <mxCell id="nNUtYWoHHe47jqBRKhcS-131" value="" style="ellipse;whiteSpace=wrap;html=1;aspect=fixed;rotation=-180;fillColor=#cdeb8b;strokeColor=#36393d;" vertex="1" parent="nNUtYWoHHe47jqBRKhcS-172">
          <mxGeometry x="200" y="24" width="40" height="40" as="geometry" />
        </mxCell>
        <mxCell id="nNUtYWoHHe47jqBRKhcS-132" value="" style="ellipse;whiteSpace=wrap;html=1;aspect=fixed;rotation=-180;fillColor=#ffcccc;strokeColor=#36393d;" vertex="1" parent="nNUtYWoHHe47jqBRKhcS-172">
          <mxGeometry x="90" y="198" width="40" height="40" as="geometry" />
        </mxCell>
        <mxCell id="nNUtYWoHHe47jqBRKhcS-133" value="" style="ellipse;whiteSpace=wrap;html=1;aspect=fixed;rotation=-180;fillColor=#ffcccc;strokeColor=#36393d;" vertex="1" parent="nNUtYWoHHe47jqBRKhcS-172">
          <mxGeometry x="90" y="133" width="40" height="40" as="geometry" />
        </mxCell>
        <mxCell id="nNUtYWoHHe47jqBRKhcS-134" value="" style="ellipse;whiteSpace=wrap;html=1;aspect=fixed;rotation=-180;fillColor=#ffcccc;strokeColor=#36393d;" vertex="1" parent="nNUtYWoHHe47jqBRKhcS-172">
          <mxGeometry x="90" y="63" width="40" height="40" as="geometry" />
        </mxCell>
        <mxCell id="nNUtYWoHHe47jqBRKhcS-135" value="" style="ellipse;whiteSpace=wrap;html=1;aspect=fixed;rotation=-180;fillColor=#cce5ff;strokeColor=#36393d;" vertex="1" parent="nNUtYWoHHe47jqBRKhcS-172">
          <mxGeometry y="165" width="40" height="40" as="geometry" />
        </mxCell>
        <mxCell id="nNUtYWoHHe47jqBRKhcS-136" value="" style="ellipse;whiteSpace=wrap;html=1;aspect=fixed;rotation=-180;fillColor=#cce5ff;strokeColor=#36393d;" vertex="1" parent="nNUtYWoHHe47jqBRKhcS-172">
          <mxGeometry y="95" width="40" height="40" as="geometry" />
        </mxCell>
        <mxCell id="nNUtYWoHHe47jqBRKhcS-137" value="" style="endArrow=none;html=1;exitX=1;exitY=0.5;exitDx=0;exitDy=0;endFill=0;endSize=1;startArrow=classicThin;startFill=1;startSize=4;" edge="1" parent="nNUtYWoHHe47jqBRKhcS-172" source="nNUtYWoHHe47jqBRKhcS-125">
          <mxGeometry width="50" height="50" relative="1" as="geometry">
            <mxPoint x="280" y="160" as="sourcePoint" />
            <mxPoint x="240" y="110" as="targetPoint" />
          </mxGeometry>
        </mxCell>
        <mxCell id="nNUtYWoHHe47jqBRKhcS-138" value="" style="endArrow=none;html=1;exitX=1;exitY=0.5;exitDx=0;exitDy=0;entryX=0;entryY=0.5;entryDx=0;entryDy=0;endFill=0;endSize=1;startArrow=classicThin;startFill=1;startSize=4;" edge="1" parent="nNUtYWoHHe47jqBRKhcS-172" source="nNUtYWoHHe47jqBRKhcS-125" target="nNUtYWoHHe47jqBRKhcS-129">
          <mxGeometry width="50" height="50" relative="1" as="geometry">
            <mxPoint x="280" y="160" as="sourcePoint" />
            <mxPoint x="230" y="210" as="targetPoint" />
          </mxGeometry>
        </mxCell>
        <mxCell id="nNUtYWoHHe47jqBRKhcS-139" value="" style="endArrow=none;html=1;exitX=1;exitY=0.5;exitDx=0;exitDy=0;entryX=0;entryY=0.5;entryDx=0;entryDy=0;endFill=0;endSize=1;startArrow=classicThin;startFill=1;startSize=4;" edge="1" parent="nNUtYWoHHe47jqBRKhcS-172" source="nNUtYWoHHe47jqBRKhcS-125" target="nNUtYWoHHe47jqBRKhcS-126">
          <mxGeometry width="50" height="50" relative="1" as="geometry">
            <mxPoint x="280" y="160" as="sourcePoint" />
            <mxPoint x="230" y="210" as="targetPoint" />
          </mxGeometry>
        </mxCell>
        <mxCell id="nNUtYWoHHe47jqBRKhcS-140" style="edgeStyle=none;rounded=0;orthogonalLoop=1;jettySize=auto;html=1;exitX=1;exitY=0.5;exitDx=0;exitDy=0;entryX=0;entryY=0.5;entryDx=0;entryDy=0;endArrow=none;endFill=0;endSize=1;startArrow=classicThin;startFill=1;startSize=4;" edge="1" parent="nNUtYWoHHe47jqBRKhcS-172" source="nNUtYWoHHe47jqBRKhcS-124" target="nNUtYWoHHe47jqBRKhcS-129">
          <mxGeometry relative="1" as="geometry" />
        </mxCell>
        <mxCell id="nNUtYWoHHe47jqBRKhcS-141" style="edgeStyle=none;rounded=0;orthogonalLoop=1;jettySize=auto;html=1;exitX=1;exitY=0.5;exitDx=0;exitDy=0;entryX=0;entryY=0.5;entryDx=0;entryDy=0;endArrow=none;endFill=0;endSize=1;startArrow=classicThin;startFill=1;startSize=4;" edge="1" parent="nNUtYWoHHe47jqBRKhcS-172" source="nNUtYWoHHe47jqBRKhcS-124" target="nNUtYWoHHe47jqBRKhcS-131">
          <mxGeometry relative="1" as="geometry" />
        </mxCell>
        <mxCell id="nNUtYWoHHe47jqBRKhcS-142" style="edgeStyle=none;rounded=0;orthogonalLoop=1;jettySize=auto;html=1;exitX=1;exitY=0.5;exitDx=0;exitDy=0;entryX=0;entryY=0.5;entryDx=0;entryDy=0;endArrow=none;endFill=0;endSize=1;startArrow=classicThin;startFill=1;startSize=4;" edge="1" parent="nNUtYWoHHe47jqBRKhcS-172" source="nNUtYWoHHe47jqBRKhcS-124" target="nNUtYWoHHe47jqBRKhcS-130">
          <mxGeometry relative="1" as="geometry" />
        </mxCell>
        <mxCell id="nNUtYWoHHe47jqBRKhcS-143" style="rounded=0;orthogonalLoop=1;jettySize=auto;html=1;entryX=0;entryY=0.5;entryDx=0;entryDy=0;exitX=1;exitY=0.5;exitDx=0;exitDy=0;endArrow=none;endFill=0;endSize=1;startArrow=classicThin;startFill=1;startSize=4;" edge="1" parent="nNUtYWoHHe47jqBRKhcS-172" source="nNUtYWoHHe47jqBRKhcS-125" target="nNUtYWoHHe47jqBRKhcS-131">
          <mxGeometry relative="1" as="geometry" />
        </mxCell>
        <mxCell id="nNUtYWoHHe47jqBRKhcS-144" style="edgeStyle=none;rounded=0;orthogonalLoop=1;jettySize=auto;html=1;entryX=0;entryY=0.5;entryDx=0;entryDy=0;exitX=1;exitY=0.5;exitDx=0;exitDy=0;endArrow=none;endFill=0;endSize=1;startArrow=classicThin;startFill=1;startSize=4;" edge="1" parent="nNUtYWoHHe47jqBRKhcS-172" source="nNUtYWoHHe47jqBRKhcS-119" target="nNUtYWoHHe47jqBRKhcS-129">
          <mxGeometry relative="1" as="geometry" />
        </mxCell>
        <mxCell id="nNUtYWoHHe47jqBRKhcS-145" style="edgeStyle=none;rounded=0;orthogonalLoop=1;jettySize=auto;html=1;entryX=0;entryY=0.5;entryDx=0;entryDy=0;exitX=1;exitY=0.5;exitDx=0;exitDy=0;endArrow=none;endFill=0;endSize=1;startArrow=classicThin;startFill=1;startSize=4;" edge="1" parent="nNUtYWoHHe47jqBRKhcS-172" source="nNUtYWoHHe47jqBRKhcS-119" target="nNUtYWoHHe47jqBRKhcS-130">
          <mxGeometry relative="1" as="geometry" />
        </mxCell>
        <mxCell id="nNUtYWoHHe47jqBRKhcS-146" style="edgeStyle=none;rounded=0;orthogonalLoop=1;jettySize=auto;html=1;entryX=0;entryY=0.5;entryDx=0;entryDy=0;endArrow=none;endFill=0;endSize=2;exitX=1;exitY=0.5;exitDx=0;exitDy=0;startArrow=classicThin;startFill=1;startSize=4;" edge="1" parent="nNUtYWoHHe47jqBRKhcS-172" source="nNUtYWoHHe47jqBRKhcS-126" target="nNUtYWoHHe47jqBRKhcS-132">
          <mxGeometry relative="1" as="geometry" />
        </mxCell>
        <mxCell id="nNUtYWoHHe47jqBRKhcS-147" style="edgeStyle=none;rounded=0;orthogonalLoop=1;jettySize=auto;html=1;entryX=0;entryY=0.5;entryDx=0;entryDy=0;exitX=1;exitY=0.5;exitDx=0;exitDy=0;endArrow=none;endFill=0;endSize=1;startArrow=classicThin;startFill=1;startSize=4;" edge="1" parent="nNUtYWoHHe47jqBRKhcS-172" source="nNUtYWoHHe47jqBRKhcS-119" target="nNUtYWoHHe47jqBRKhcS-131">
          <mxGeometry relative="1" as="geometry" />
        </mxCell>
        <mxCell id="nNUtYWoHHe47jqBRKhcS-148" style="edgeStyle=none;rounded=0;orthogonalLoop=1;jettySize=auto;html=1;entryX=0;entryY=0.5;entryDx=0;entryDy=0;endArrow=none;endFill=0;endSize=2;exitX=1;exitY=0.5;exitDx=0;exitDy=0;startArrow=classicThin;startFill=1;startSize=4;" edge="1" parent="nNUtYWoHHe47jqBRKhcS-172" source="nNUtYWoHHe47jqBRKhcS-129" target="nNUtYWoHHe47jqBRKhcS-132">
          <mxGeometry relative="1" as="geometry" />
        </mxCell>
        <mxCell id="nNUtYWoHHe47jqBRKhcS-149" style="edgeStyle=none;rounded=0;orthogonalLoop=1;jettySize=auto;html=1;exitX=1;exitY=0.5;exitDx=0;exitDy=0;entryX=0;entryY=0.5;entryDx=0;entryDy=0;endArrow=none;endFill=0;endSize=1;startArrow=classicThin;startFill=1;startSize=4;" edge="1" parent="nNUtYWoHHe47jqBRKhcS-172" source="nNUtYWoHHe47jqBRKhcS-121" target="nNUtYWoHHe47jqBRKhcS-129">
          <mxGeometry relative="1" as="geometry">
            <mxPoint x="240" y="240" as="targetPoint" />
          </mxGeometry>
        </mxCell>
        <mxCell id="nNUtYWoHHe47jqBRKhcS-150" style="edgeStyle=none;rounded=0;orthogonalLoop=1;jettySize=auto;html=1;entryX=0;entryY=0.5;entryDx=0;entryDy=0;endArrow=none;endFill=0;endSize=2;exitX=1;exitY=0.5;exitDx=0;exitDy=0;startArrow=classicThin;startFill=1;startSize=4;" edge="1" parent="nNUtYWoHHe47jqBRKhcS-172" source="nNUtYWoHHe47jqBRKhcS-130" target="nNUtYWoHHe47jqBRKhcS-132">
          <mxGeometry relative="1" as="geometry" />
        </mxCell>
        <mxCell id="nNUtYWoHHe47jqBRKhcS-151" style="edgeStyle=none;rounded=0;orthogonalLoop=1;jettySize=auto;html=1;exitX=1;exitY=0.5;exitDx=0;exitDy=0;entryX=0;entryY=0.5;entryDx=0;entryDy=0;endArrow=none;endFill=0;endSize=1;startArrow=classicThin;startFill=1;startSize=4;" edge="1" parent="nNUtYWoHHe47jqBRKhcS-172" source="nNUtYWoHHe47jqBRKhcS-121" target="nNUtYWoHHe47jqBRKhcS-130">
          <mxGeometry relative="1" as="geometry">
            <mxPoint x="240" y="240" as="targetPoint" />
          </mxGeometry>
        </mxCell>
        <mxCell id="nNUtYWoHHe47jqBRKhcS-152" style="edgeStyle=none;rounded=0;orthogonalLoop=1;jettySize=auto;html=1;exitX=1;exitY=0.5;exitDx=0;exitDy=0;entryX=0;entryY=0.5;entryDx=0;entryDy=0;endArrow=none;endFill=0;endSize=1;startArrow=classicThin;startFill=1;startSize=4;" edge="1" parent="nNUtYWoHHe47jqBRKhcS-172" source="nNUtYWoHHe47jqBRKhcS-121" target="nNUtYWoHHe47jqBRKhcS-131">
          <mxGeometry relative="1" as="geometry">
            <mxPoint x="240" y="240" as="targetPoint" />
          </mxGeometry>
        </mxCell>
        <mxCell id="nNUtYWoHHe47jqBRKhcS-153" style="edgeStyle=none;rounded=0;orthogonalLoop=1;jettySize=auto;html=1;exitX=1;exitY=0.5;exitDx=0;exitDy=0;entryX=0;entryY=0.5;entryDx=0;entryDy=0;endArrow=none;endFill=0;endSize=1;startArrow=classicThin;startFill=1;startSize=4;" edge="1" parent="nNUtYWoHHe47jqBRKhcS-172" source="nNUtYWoHHe47jqBRKhcS-123" target="nNUtYWoHHe47jqBRKhcS-129">
          <mxGeometry relative="1" as="geometry">
            <mxPoint x="240" y="240" as="targetPoint" />
          </mxGeometry>
        </mxCell>
        <mxCell id="nNUtYWoHHe47jqBRKhcS-154" style="edgeStyle=none;rounded=0;orthogonalLoop=1;jettySize=auto;html=1;exitX=1;exitY=0.5;exitDx=0;exitDy=0;entryX=0;entryY=0.5;entryDx=0;entryDy=0;endArrow=none;endFill=0;endSize=1;startArrow=classicThin;startFill=1;startSize=4;" edge="1" parent="nNUtYWoHHe47jqBRKhcS-172" source="nNUtYWoHHe47jqBRKhcS-123" target="nNUtYWoHHe47jqBRKhcS-130">
          <mxGeometry relative="1" as="geometry">
            <mxPoint x="240" y="240" as="targetPoint" />
          </mxGeometry>
        </mxCell>
        <mxCell id="nNUtYWoHHe47jqBRKhcS-155" style="edgeStyle=none;rounded=0;orthogonalLoop=1;jettySize=auto;html=1;exitX=1;exitY=0.5;exitDx=0;exitDy=0;entryX=0;entryY=0.5;entryDx=0;entryDy=0;endArrow=none;endFill=0;endSize=1;startArrow=classicThin;startFill=1;startSize=4;" edge="1" parent="nNUtYWoHHe47jqBRKhcS-172" source="nNUtYWoHHe47jqBRKhcS-123" target="nNUtYWoHHe47jqBRKhcS-131">
          <mxGeometry relative="1" as="geometry">
            <mxPoint x="240" y="240" as="targetPoint" />
          </mxGeometry>
        </mxCell>
        <mxCell id="nNUtYWoHHe47jqBRKhcS-156" style="edgeStyle=none;rounded=0;orthogonalLoop=1;jettySize=auto;html=1;endArrow=none;endFill=0;endSize=2;exitX=1;exitY=0.5;exitDx=0;exitDy=0;entryX=0.002;entryY=0.598;entryDx=0;entryDy=0;entryPerimeter=0;startArrow=classicThin;startFill=1;startSize=4;" edge="1" parent="nNUtYWoHHe47jqBRKhcS-172" source="nNUtYWoHHe47jqBRKhcS-126" target="nNUtYWoHHe47jqBRKhcS-133">
          <mxGeometry relative="1" as="geometry">
            <mxPoint x="130" y="153" as="targetPoint" />
          </mxGeometry>
        </mxCell>
        <mxCell id="nNUtYWoHHe47jqBRKhcS-157" style="edgeStyle=none;rounded=0;orthogonalLoop=1;jettySize=auto;html=1;entryX=0;entryY=0.5;entryDx=0;entryDy=0;endArrow=none;endFill=0;endSize=2;exitX=1;exitY=0.5;exitDx=0;exitDy=0;startArrow=classicThin;startFill=1;startSize=4;" edge="1" parent="nNUtYWoHHe47jqBRKhcS-172" source="nNUtYWoHHe47jqBRKhcS-131" target="nNUtYWoHHe47jqBRKhcS-134">
          <mxGeometry relative="1" as="geometry" />
        </mxCell>
        <mxCell id="nNUtYWoHHe47jqBRKhcS-158" style="edgeStyle=none;rounded=0;orthogonalLoop=1;jettySize=auto;html=1;entryX=0;entryY=0.5;entryDx=0;entryDy=0;endArrow=none;endFill=0;endSize=2;exitX=1;exitY=0.5;exitDx=0;exitDy=0;startArrow=classicThin;startFill=1;startSize=4;" edge="1" parent="nNUtYWoHHe47jqBRKhcS-172" source="nNUtYWoHHe47jqBRKhcS-126" target="nNUtYWoHHe47jqBRKhcS-134">
          <mxGeometry relative="1" as="geometry" />
        </mxCell>
        <mxCell id="nNUtYWoHHe47jqBRKhcS-159" style="edgeStyle=none;rounded=0;orthogonalLoop=1;jettySize=auto;html=1;endArrow=none;endFill=0;endSize=2;exitX=1;exitY=0.5;exitDx=0;exitDy=0;startArrow=classicThin;startFill=1;startSize=4;" edge="1" parent="nNUtYWoHHe47jqBRKhcS-172" source="nNUtYWoHHe47jqBRKhcS-129">
          <mxGeometry relative="1" as="geometry">
            <mxPoint x="202" y="183" as="sourcePoint" />
            <mxPoint x="130" y="150" as="targetPoint" />
          </mxGeometry>
        </mxCell>
        <mxCell id="nNUtYWoHHe47jqBRKhcS-160" style="edgeStyle=none;rounded=0;orthogonalLoop=1;jettySize=auto;html=1;endArrow=none;endFill=0;endSize=2;exitX=1;exitY=0.5;exitDx=0;exitDy=0;entryX=0;entryY=0.5;entryDx=0;entryDy=0;startArrow=classicThin;startFill=1;startSize=4;" edge="1" parent="nNUtYWoHHe47jqBRKhcS-172" source="nNUtYWoHHe47jqBRKhcS-129" target="nNUtYWoHHe47jqBRKhcS-134">
          <mxGeometry relative="1" as="geometry">
            <mxPoint x="202" y="183" as="sourcePoint" />
            <mxPoint x="130" y="150" as="targetPoint" />
          </mxGeometry>
        </mxCell>
        <mxCell id="nNUtYWoHHe47jqBRKhcS-161" style="edgeStyle=none;rounded=0;orthogonalLoop=1;jettySize=auto;html=1;entryX=0;entryY=0.5;entryDx=0;entryDy=0;endArrow=none;endFill=0;endSize=1;exitX=1;exitY=0.5;exitDx=0;exitDy=0;startArrow=classicThin;startFill=1;startSize=4;" edge="1" parent="nNUtYWoHHe47jqBRKhcS-172" source="nNUtYWoHHe47jqBRKhcS-132" target="nNUtYWoHHe47jqBRKhcS-135">
          <mxGeometry relative="1" as="geometry" />
        </mxCell>
        <mxCell id="nNUtYWoHHe47jqBRKhcS-162" style="edgeStyle=none;rounded=0;orthogonalLoop=1;jettySize=auto;html=1;endArrow=none;endFill=0;endSize=2;exitX=1;exitY=0.5;exitDx=0;exitDy=0;entryX=-0.012;entryY=0.569;entryDx=0;entryDy=0;entryPerimeter=0;startArrow=classicThin;startFill=1;startSize=4;" edge="1" parent="nNUtYWoHHe47jqBRKhcS-172" source="nNUtYWoHHe47jqBRKhcS-130" target="nNUtYWoHHe47jqBRKhcS-133">
          <mxGeometry relative="1" as="geometry">
            <mxPoint x="130" y="130" as="targetPoint" />
          </mxGeometry>
        </mxCell>
        <mxCell id="nNUtYWoHHe47jqBRKhcS-163" style="edgeStyle=none;rounded=0;orthogonalLoop=1;jettySize=auto;html=1;endArrow=none;endFill=0;endSize=1;entryX=0;entryY=0.5;entryDx=0;entryDy=0;exitX=1;exitY=0.5;exitDx=0;exitDy=0;startArrow=classicThin;startFill=1;startSize=4;" edge="1" parent="nNUtYWoHHe47jqBRKhcS-172" source="nNUtYWoHHe47jqBRKhcS-133" target="nNUtYWoHHe47jqBRKhcS-135">
          <mxGeometry relative="1" as="geometry" />
        </mxCell>
        <mxCell id="nNUtYWoHHe47jqBRKhcS-164" style="edgeStyle=none;rounded=0;orthogonalLoop=1;jettySize=auto;html=1;entryX=0;entryY=0.5;entryDx=0;entryDy=0;endArrow=none;endFill=0;endSize=2;exitX=1;exitY=0.5;exitDx=0;exitDy=0;startArrow=classicThin;startFill=1;startSize=4;" edge="1" parent="nNUtYWoHHe47jqBRKhcS-172" source="nNUtYWoHHe47jqBRKhcS-130" target="nNUtYWoHHe47jqBRKhcS-134">
          <mxGeometry relative="1" as="geometry" />
        </mxCell>
        <mxCell id="nNUtYWoHHe47jqBRKhcS-165" style="edgeStyle=none;rounded=0;orthogonalLoop=1;jettySize=auto;html=1;endArrow=none;endFill=0;endSize=2;exitX=1;exitY=0.5;exitDx=0;exitDy=0;startArrow=classicThin;startFill=1;startSize=4;" edge="1" parent="nNUtYWoHHe47jqBRKhcS-172" source="nNUtYWoHHe47jqBRKhcS-131">
          <mxGeometry relative="1" as="geometry">
            <mxPoint x="200" y="40" as="sourcePoint" />
            <mxPoint x="130" y="150" as="targetPoint" />
          </mxGeometry>
        </mxCell>
        <mxCell id="nNUtYWoHHe47jqBRKhcS-166" style="edgeStyle=none;rounded=0;orthogonalLoop=1;jettySize=auto;html=1;endArrow=none;endFill=0;endSize=2;exitX=1;exitY=0.5;exitDx=0;exitDy=0;entryX=0;entryY=0.5;entryDx=0;entryDy=0;startArrow=classicThin;startFill=1;startSize=4;" edge="1" parent="nNUtYWoHHe47jqBRKhcS-172" source="nNUtYWoHHe47jqBRKhcS-131" target="nNUtYWoHHe47jqBRKhcS-132">
          <mxGeometry relative="1" as="geometry">
            <mxPoint x="200" y="40" as="sourcePoint" />
            <mxPoint x="130" y="150" as="targetPoint" />
          </mxGeometry>
        </mxCell>
        <mxCell id="nNUtYWoHHe47jqBRKhcS-167" style="edgeStyle=none;rounded=0;orthogonalLoop=1;jettySize=auto;html=1;entryX=0;entryY=0.5;entryDx=0;entryDy=0;endArrow=none;endFill=0;endSize=1;exitX=1;exitY=0.5;exitDx=0;exitDy=0;startArrow=classicThin;startFill=1;startSize=4;" edge="1" parent="nNUtYWoHHe47jqBRKhcS-172" source="nNUtYWoHHe47jqBRKhcS-132" target="nNUtYWoHHe47jqBRKhcS-136">
          <mxGeometry relative="1" as="geometry" />
        </mxCell>
        <mxCell id="nNUtYWoHHe47jqBRKhcS-168" style="edgeStyle=none;rounded=0;orthogonalLoop=1;jettySize=auto;html=1;entryX=0;entryY=0.5;entryDx=0;entryDy=0;endArrow=none;endFill=0;endSize=1;exitX=0.975;exitY=0.635;exitDx=0;exitDy=0;exitPerimeter=0;startArrow=classicThin;startFill=1;startSize=4;" edge="1" parent="nNUtYWoHHe47jqBRKhcS-172" source="nNUtYWoHHe47jqBRKhcS-134" target="nNUtYWoHHe47jqBRKhcS-135">
          <mxGeometry relative="1" as="geometry" />
        </mxCell>
        <mxCell id="nNUtYWoHHe47jqBRKhcS-169" style="edgeStyle=none;rounded=0;orthogonalLoop=1;jettySize=auto;html=1;entryX=0;entryY=0.5;entryDx=0;entryDy=0;endArrow=none;endFill=0;endSize=1;exitX=1.005;exitY=0.595;exitDx=0;exitDy=0;exitPerimeter=0;startArrow=classicThin;startFill=1;startSize=4;" edge="1" parent="nNUtYWoHHe47jqBRKhcS-172" source="nNUtYWoHHe47jqBRKhcS-134" target="nNUtYWoHHe47jqBRKhcS-136">
          <mxGeometry relative="1" as="geometry" />
        </mxCell>
        <mxCell id="nNUtYWoHHe47jqBRKhcS-170" style="edgeStyle=none;rounded=0;orthogonalLoop=1;jettySize=auto;html=1;endArrow=none;endFill=0;endSize=1;entryX=0;entryY=0.5;entryDx=0;entryDy=0;exitX=1;exitY=0.5;exitDx=0;exitDy=0;startArrow=classicThin;startFill=1;startSize=4;" edge="1" parent="nNUtYWoHHe47jqBRKhcS-172" source="nNUtYWoHHe47jqBRKhcS-133" target="nNUtYWoHHe47jqBRKhcS-136">
          <mxGeometry relative="1" as="geometry" />
        </mxCell>
        <mxCell id="nNUtYWoHHe47jqBRKhcS-3" value="" style="ellipse;whiteSpace=wrap;html=1;aspect=fixed;fillColor=#ffcc99;strokeColor=#36393d;" vertex="1" parent="1">
          <mxGeometry x="330" y="519" width="40" height="40" as="geometry" />
        </mxCell>
        <mxCell id="nNUtYWoHHe47jqBRKhcS-38" style="edgeStyle=none;rounded=0;orthogonalLoop=1;jettySize=auto;html=1;exitX=1;exitY=0.5;exitDx=0;exitDy=0;endArrow=classicThin;endFill=1;endSize=2;" edge="1" parent="1" source="nNUtYWoHHe47jqBRKhcS-4">
          <mxGeometry relative="1" as="geometry">
            <mxPoint x="440" y="519" as="targetPoint" />
          </mxGeometry>
        </mxCell>
        <mxCell id="nNUtYWoHHe47jqBRKhcS-4" value="" style="ellipse;whiteSpace=wrap;html=1;aspect=fixed;fillColor=#ffcc99;strokeColor=#36393d;" vertex="1" parent="1">
          <mxGeometry x="330" y="584" width="40" height="40" as="geometry" />
        </mxCell>
        <mxCell id="nNUtYWoHHe47jqBRKhcS-42" style="edgeStyle=none;rounded=0;orthogonalLoop=1;jettySize=auto;html=1;exitX=1;exitY=0.5;exitDx=0;exitDy=0;endArrow=classicThin;endFill=1;endSize=2;" edge="1" parent="1" source="nNUtYWoHHe47jqBRKhcS-5">
          <mxGeometry relative="1" as="geometry">
            <mxPoint x="440" y="519" as="targetPoint" />
          </mxGeometry>
        </mxCell>
        <mxCell id="nNUtYWoHHe47jqBRKhcS-5" value="" style="ellipse;whiteSpace=wrap;html=1;aspect=fixed;fillColor=#ffcc99;strokeColor=#36393d;" vertex="1" parent="1">
          <mxGeometry x="330" y="649" width="40" height="40" as="geometry" />
        </mxCell>
        <mxCell id="nNUtYWoHHe47jqBRKhcS-182" style="edgeStyle=orthogonalEdgeStyle;rounded=0;orthogonalLoop=1;jettySize=auto;html=1;entryX=0.5;entryY=0;entryDx=0;entryDy=0;startArrow=none;startFill=0;startSize=4;endArrow=classicThin;endFill=1;endSize=3;exitX=0.5;exitY=1;exitDx=0;exitDy=0;dashed=1;dashPattern=1 1;" edge="1" parent="1" source="nNUtYWoHHe47jqBRKhcS-6" target="nNUtYWoHHe47jqBRKhcS-125">
          <mxGeometry relative="1" as="geometry" />
        </mxCell>
        <mxCell id="nNUtYWoHHe47jqBRKhcS-6" value="" style="ellipse;whiteSpace=wrap;html=1;aspect=fixed;fillColor=#ffcc99;strokeColor=#36393d;" vertex="1" parent="1">
          <mxGeometry x="330" y="719" width="40" height="40" as="geometry" />
        </mxCell>
        <mxCell id="nNUtYWoHHe47jqBRKhcS-7" value="" style="ellipse;whiteSpace=wrap;html=1;aspect=fixed;fillColor=#ffcc99;strokeColor=#36393d;" vertex="1" parent="1">
          <mxGeometry x="330" y="459" width="40" height="40" as="geometry" />
        </mxCell>
        <mxCell id="nNUtYWoHHe47jqBRKhcS-8" value="" style="ellipse;whiteSpace=wrap;html=1;aspect=fixed;fillColor=#cdeb8b;strokeColor=#36393d;" vertex="1" parent="1">
          <mxGeometry x="440" y="497" width="40" height="40" as="geometry" />
        </mxCell>
        <mxCell id="nNUtYWoHHe47jqBRKhcS-33" style="edgeStyle=none;rounded=0;orthogonalLoop=1;jettySize=auto;html=1;entryX=0;entryY=0.5;entryDx=0;entryDy=0;exitX=1;exitY=0.5;exitDx=0;exitDy=0;endArrow=classicThin;endFill=1;endSize=2;" edge="1" parent="1" source="nNUtYWoHHe47jqBRKhcS-3" target="nNUtYWoHHe47jqBRKhcS-8">
          <mxGeometry relative="1" as="geometry" />
        </mxCell>
        <mxCell id="nNUtYWoHHe47jqBRKhcS-29" style="edgeStyle=none;rounded=0;orthogonalLoop=1;jettySize=auto;html=1;exitX=1;exitY=0.5;exitDx=0;exitDy=0;entryX=0;entryY=0.5;entryDx=0;entryDy=0;endArrow=classicThin;endFill=1;endSize=2;" edge="1" parent="1" source="nNUtYWoHHe47jqBRKhcS-6" target="nNUtYWoHHe47jqBRKhcS-8">
          <mxGeometry relative="1" as="geometry" />
        </mxCell>
        <mxCell id="nNUtYWoHHe47jqBRKhcS-9" value="" style="ellipse;whiteSpace=wrap;html=1;aspect=fixed;fillColor=#cdeb8b;strokeColor=#36393d;" vertex="1" parent="1">
          <mxGeometry x="440" y="564" width="40" height="40" as="geometry" />
        </mxCell>
        <mxCell id="nNUtYWoHHe47jqBRKhcS-10" value="" style="ellipse;whiteSpace=wrap;html=1;aspect=fixed;fillColor=#cdeb8b;strokeColor=#36393d;" vertex="1" parent="1">
          <mxGeometry x="440" y="627" width="40" height="40" as="geometry" />
        </mxCell>
        <mxCell id="nNUtYWoHHe47jqBRKhcS-181" style="edgeStyle=orthogonalEdgeStyle;rounded=0;orthogonalLoop=1;jettySize=auto;html=1;entryX=0.5;entryY=0;entryDx=0;entryDy=0;startArrow=none;startFill=0;startSize=4;endArrow=classicThin;endFill=1;endSize=3;exitX=0.5;exitY=1;exitDx=0;exitDy=0;dashed=1;dashPattern=1 1;" edge="1" parent="1" source="nNUtYWoHHe47jqBRKhcS-11" target="nNUtYWoHHe47jqBRKhcS-126">
          <mxGeometry relative="1" as="geometry" />
        </mxCell>
        <mxCell id="nNUtYWoHHe47jqBRKhcS-11" value="" style="ellipse;whiteSpace=wrap;html=1;aspect=fixed;fillColor=#cdeb8b;strokeColor=#36393d;" vertex="1" parent="1">
          <mxGeometry x="440" y="695" width="40" height="40" as="geometry" />
        </mxCell>
        <mxCell id="nNUtYWoHHe47jqBRKhcS-179" style="edgeStyle=orthogonalEdgeStyle;rounded=0;orthogonalLoop=1;jettySize=auto;html=1;exitX=0.5;exitY=0;exitDx=0;exitDy=0;startArrow=none;startFill=0;startSize=4;endArrow=classicThin;endFill=1;endSize=3;entryX=0.5;entryY=1;entryDx=0;entryDy=0;dashed=1;dashPattern=1 1;" edge="1" parent="1" source="nNUtYWoHHe47jqBRKhcS-14" target="nNUtYWoHHe47jqBRKhcS-134">
          <mxGeometry relative="1" as="geometry">
            <mxPoint x="569.7241379310344" y="510" as="targetPoint" />
          </mxGeometry>
        </mxCell>
        <mxCell id="nNUtYWoHHe47jqBRKhcS-14" value="" style="ellipse;whiteSpace=wrap;html=1;aspect=fixed;fillColor=#ffcccc;strokeColor=#36393d;" vertex="1" parent="1">
          <mxGeometry x="550" y="521" width="40" height="40" as="geometry" />
        </mxCell>
        <mxCell id="nNUtYWoHHe47jqBRKhcS-15" value="" style="ellipse;whiteSpace=wrap;html=1;aspect=fixed;fillColor=#ffcccc;strokeColor=#36393d;" vertex="1" parent="1">
          <mxGeometry x="550" y="586" width="40" height="40" as="geometry" />
        </mxCell>
        <mxCell id="nNUtYWoHHe47jqBRKhcS-16" value="" style="ellipse;whiteSpace=wrap;html=1;aspect=fixed;fillColor=#ffcccc;strokeColor=#36393d;" vertex="1" parent="1">
          <mxGeometry x="550" y="656" width="40" height="40" as="geometry" />
        </mxCell>
        <mxCell id="nNUtYWoHHe47jqBRKhcS-175" style="edgeStyle=none;rounded=0;orthogonalLoop=1;jettySize=auto;html=1;entryX=1;entryY=0.5;entryDx=0;entryDy=0;startArrow=none;startFill=0;startSize=4;endArrow=classicThin;endFill=1;endSize=3;exitX=1;exitY=0.5;exitDx=0;exitDy=0;fillColor=#cce5ff;strokeColor=#36393d;" edge="1" parent="1" source="nNUtYWoHHe47jqBRKhcS-17" target="nNUtYWoHHe47jqBRKhcS-135">
          <mxGeometry relative="1" as="geometry" />
        </mxCell>
        <mxCell id="nNUtYWoHHe47jqBRKhcS-176" style="edgeStyle=none;rounded=0;orthogonalLoop=1;jettySize=auto;html=1;startArrow=none;startFill=0;startSize=4;endArrow=classicThin;endFill=1;endSize=3;fillColor=#cce5ff;strokeColor=#36393d;" edge="1" parent="1" source="nNUtYWoHHe47jqBRKhcS-17" target="nNUtYWoHHe47jqBRKhcS-136">
          <mxGeometry relative="1" as="geometry" />
        </mxCell>
        <mxCell id="nNUtYWoHHe47jqBRKhcS-178" style="edgeStyle=orthogonalEdgeStyle;rounded=0;orthogonalLoop=1;jettySize=auto;html=1;entryX=0.5;entryY=1;entryDx=0;entryDy=0;startArrow=none;startFill=0;startSize=4;endArrow=classicThin;endFill=1;endSize=3;exitX=0.5;exitY=0;exitDx=0;exitDy=0;dashed=1;dashPattern=1 1;" edge="1" parent="1" source="nNUtYWoHHe47jqBRKhcS-17" target="nNUtYWoHHe47jqBRKhcS-136">
          <mxGeometry relative="1" as="geometry" />
        </mxCell>
        <mxCell id="nNUtYWoHHe47jqBRKhcS-17" value="" style="ellipse;whiteSpace=wrap;html=1;aspect=fixed;fillColor=#cce5ff;strokeColor=#36393d;" vertex="1" parent="1">
          <mxGeometry x="640" y="554" width="40" height="40" as="geometry" />
        </mxCell>
        <mxCell id="nNUtYWoHHe47jqBRKhcS-174" style="edgeStyle=none;rounded=0;orthogonalLoop=1;jettySize=auto;html=1;entryX=1;entryY=0.5;entryDx=0;entryDy=0;startArrow=none;startFill=0;startSize=4;endArrow=classicThin;endFill=1;endSize=3;exitX=1;exitY=0.5;exitDx=0;exitDy=0;fillColor=#cce5ff;strokeColor=#36393d;" edge="1" parent="1" source="nNUtYWoHHe47jqBRKhcS-18" target="nNUtYWoHHe47jqBRKhcS-136">
          <mxGeometry relative="1" as="geometry" />
        </mxCell>
        <mxCell id="nNUtYWoHHe47jqBRKhcS-177" style="edgeStyle=none;rounded=0;orthogonalLoop=1;jettySize=auto;html=1;entryX=1;entryY=0.5;entryDx=0;entryDy=0;startArrow=none;startFill=0;startSize=4;endArrow=classicThin;endFill=1;endSize=3;fillColor=#cce5ff;strokeColor=#36393d;" edge="1" parent="1" source="nNUtYWoHHe47jqBRKhcS-18" target="nNUtYWoHHe47jqBRKhcS-135">
          <mxGeometry relative="1" as="geometry" />
        </mxCell>
        <mxCell id="nNUtYWoHHe47jqBRKhcS-18" value="" style="ellipse;whiteSpace=wrap;html=1;aspect=fixed;fillColor=#cce5ff;strokeColor=#36393d;" vertex="1" parent="1">
          <mxGeometry x="640" y="624" width="40" height="40" as="geometry" />
        </mxCell>
        <mxCell id="nNUtYWoHHe47jqBRKhcS-24" value="" style="endArrow=classicThin;html=1;exitX=1;exitY=0.5;exitDx=0;exitDy=0;endFill=1;endSize=2;" edge="1" parent="1" source="nNUtYWoHHe47jqBRKhcS-7">
          <mxGeometry width="50" height="50" relative="1" as="geometry">
            <mxPoint x="400" y="599" as="sourcePoint" />
            <mxPoint x="440" y="649" as="targetPoint" />
          </mxGeometry>
        </mxCell>
        <mxCell id="nNUtYWoHHe47jqBRKhcS-27" value="" style="endArrow=classicThin;html=1;exitX=1;exitY=0.5;exitDx=0;exitDy=0;entryX=0;entryY=0.5;entryDx=0;entryDy=0;endFill=1;endSize=2;" edge="1" parent="1" source="nNUtYWoHHe47jqBRKhcS-7" target="nNUtYWoHHe47jqBRKhcS-9">
          <mxGeometry width="50" height="50" relative="1" as="geometry">
            <mxPoint x="400" y="599" as="sourcePoint" />
            <mxPoint x="450" y="549" as="targetPoint" />
          </mxGeometry>
        </mxCell>
        <mxCell id="nNUtYWoHHe47jqBRKhcS-28" value="" style="endArrow=classicThin;html=1;exitX=1;exitY=0.5;exitDx=0;exitDy=0;entryX=0;entryY=0.5;entryDx=0;entryDy=0;endFill=1;endSize=2;" edge="1" parent="1" source="nNUtYWoHHe47jqBRKhcS-7" target="nNUtYWoHHe47jqBRKhcS-8">
          <mxGeometry width="50" height="50" relative="1" as="geometry">
            <mxPoint x="400" y="599" as="sourcePoint" />
            <mxPoint x="450" y="549" as="targetPoint" />
          </mxGeometry>
        </mxCell>
        <mxCell id="nNUtYWoHHe47jqBRKhcS-30" style="edgeStyle=none;rounded=0;orthogonalLoop=1;jettySize=auto;html=1;exitX=1;exitY=0.5;exitDx=0;exitDy=0;entryX=0;entryY=0.5;entryDx=0;entryDy=0;endArrow=classicThin;endFill=1;endSize=2;" edge="1" parent="1" source="nNUtYWoHHe47jqBRKhcS-6" target="nNUtYWoHHe47jqBRKhcS-9">
          <mxGeometry relative="1" as="geometry" />
        </mxCell>
        <mxCell id="nNUtYWoHHe47jqBRKhcS-31" style="edgeStyle=none;rounded=0;orthogonalLoop=1;jettySize=auto;html=1;exitX=1;exitY=0.5;exitDx=0;exitDy=0;entryX=0;entryY=0.5;entryDx=0;entryDy=0;endArrow=classicThin;endFill=1;endSize=2;" edge="1" parent="1" source="nNUtYWoHHe47jqBRKhcS-6" target="nNUtYWoHHe47jqBRKhcS-11">
          <mxGeometry relative="1" as="geometry" />
        </mxCell>
        <mxCell id="nNUtYWoHHe47jqBRKhcS-32" style="edgeStyle=none;rounded=0;orthogonalLoop=1;jettySize=auto;html=1;exitX=1;exitY=0.5;exitDx=0;exitDy=0;entryX=0;entryY=0.5;entryDx=0;entryDy=0;endArrow=classicThin;endFill=1;endSize=2;" edge="1" parent="1" source="nNUtYWoHHe47jqBRKhcS-6" target="nNUtYWoHHe47jqBRKhcS-10">
          <mxGeometry relative="1" as="geometry" />
        </mxCell>
        <mxCell id="nNUtYWoHHe47jqBRKhcS-19" style="rounded=0;orthogonalLoop=1;jettySize=auto;html=1;entryX=0;entryY=0.5;entryDx=0;entryDy=0;exitX=1;exitY=0.5;exitDx=0;exitDy=0;endArrow=classicThin;endFill=1;endSize=2;" edge="1" parent="1" source="nNUtYWoHHe47jqBRKhcS-7" target="nNUtYWoHHe47jqBRKhcS-11">
          <mxGeometry relative="1" as="geometry" />
        </mxCell>
        <mxCell id="nNUtYWoHHe47jqBRKhcS-34" style="edgeStyle=none;rounded=0;orthogonalLoop=1;jettySize=auto;html=1;entryX=0;entryY=0.5;entryDx=0;entryDy=0;exitX=1;exitY=0.5;exitDx=0;exitDy=0;endArrow=classicThin;endFill=1;endSize=2;" edge="1" parent="1" source="nNUtYWoHHe47jqBRKhcS-3" target="nNUtYWoHHe47jqBRKhcS-9">
          <mxGeometry relative="1" as="geometry" />
        </mxCell>
        <mxCell id="nNUtYWoHHe47jqBRKhcS-35" style="edgeStyle=none;rounded=0;orthogonalLoop=1;jettySize=auto;html=1;entryX=0;entryY=0.5;entryDx=0;entryDy=0;exitX=1;exitY=0.5;exitDx=0;exitDy=0;endArrow=classicThin;endFill=1;endSize=2;" edge="1" parent="1" source="nNUtYWoHHe47jqBRKhcS-3" target="nNUtYWoHHe47jqBRKhcS-10">
          <mxGeometry relative="1" as="geometry" />
        </mxCell>
        <mxCell id="nNUtYWoHHe47jqBRKhcS-46" style="edgeStyle=none;rounded=0;orthogonalLoop=1;jettySize=auto;html=1;entryX=0;entryY=0.5;entryDx=0;entryDy=0;endArrow=classicThin;endFill=1;endSize=2;exitX=1;exitY=0.5;exitDx=0;exitDy=0;" edge="1" parent="1" source="nNUtYWoHHe47jqBRKhcS-8" target="nNUtYWoHHe47jqBRKhcS-14">
          <mxGeometry relative="1" as="geometry" />
        </mxCell>
        <mxCell id="nNUtYWoHHe47jqBRKhcS-36" style="edgeStyle=none;rounded=0;orthogonalLoop=1;jettySize=auto;html=1;entryX=0;entryY=0.5;entryDx=0;entryDy=0;exitX=1;exitY=0.5;exitDx=0;exitDy=0;endArrow=classicThin;endFill=1;endSize=2;" edge="1" parent="1" source="nNUtYWoHHe47jqBRKhcS-3" target="nNUtYWoHHe47jqBRKhcS-11">
          <mxGeometry relative="1" as="geometry" />
        </mxCell>
        <mxCell id="nNUtYWoHHe47jqBRKhcS-49" style="edgeStyle=none;rounded=0;orthogonalLoop=1;jettySize=auto;html=1;entryX=0;entryY=0.5;entryDx=0;entryDy=0;endArrow=classicThin;endFill=1;endSize=2;exitX=1;exitY=0.5;exitDx=0;exitDy=0;" edge="1" parent="1" source="nNUtYWoHHe47jqBRKhcS-9" target="nNUtYWoHHe47jqBRKhcS-14">
          <mxGeometry relative="1" as="geometry" />
        </mxCell>
        <mxCell id="nNUtYWoHHe47jqBRKhcS-39" style="edgeStyle=none;rounded=0;orthogonalLoop=1;jettySize=auto;html=1;exitX=1;exitY=0.5;exitDx=0;exitDy=0;entryX=0;entryY=0.5;entryDx=0;entryDy=0;endArrow=classicThin;endFill=1;endSize=2;" edge="1" parent="1" source="nNUtYWoHHe47jqBRKhcS-4" target="nNUtYWoHHe47jqBRKhcS-9">
          <mxGeometry relative="1" as="geometry">
            <mxPoint x="440" y="519" as="targetPoint" />
          </mxGeometry>
        </mxCell>
        <mxCell id="nNUtYWoHHe47jqBRKhcS-52" style="edgeStyle=none;rounded=0;orthogonalLoop=1;jettySize=auto;html=1;entryX=0;entryY=0.5;entryDx=0;entryDy=0;endArrow=classicThin;endFill=1;endSize=2;exitX=1;exitY=0.5;exitDx=0;exitDy=0;" edge="1" parent="1" source="nNUtYWoHHe47jqBRKhcS-10" target="nNUtYWoHHe47jqBRKhcS-14">
          <mxGeometry relative="1" as="geometry" />
        </mxCell>
        <mxCell id="nNUtYWoHHe47jqBRKhcS-40" style="edgeStyle=none;rounded=0;orthogonalLoop=1;jettySize=auto;html=1;exitX=1;exitY=0.5;exitDx=0;exitDy=0;entryX=0;entryY=0.5;entryDx=0;entryDy=0;endArrow=classicThin;endFill=1;endSize=2;" edge="1" parent="1" source="nNUtYWoHHe47jqBRKhcS-4" target="nNUtYWoHHe47jqBRKhcS-10">
          <mxGeometry relative="1" as="geometry">
            <mxPoint x="440" y="519" as="targetPoint" />
          </mxGeometry>
        </mxCell>
        <mxCell id="nNUtYWoHHe47jqBRKhcS-41" style="edgeStyle=none;rounded=0;orthogonalLoop=1;jettySize=auto;html=1;exitX=1;exitY=0.5;exitDx=0;exitDy=0;entryX=0;entryY=0.5;entryDx=0;entryDy=0;endArrow=classicThin;endFill=1;endSize=2;" edge="1" parent="1" source="nNUtYWoHHe47jqBRKhcS-4" target="nNUtYWoHHe47jqBRKhcS-11">
          <mxGeometry relative="1" as="geometry">
            <mxPoint x="440" y="519" as="targetPoint" />
          </mxGeometry>
        </mxCell>
        <mxCell id="nNUtYWoHHe47jqBRKhcS-43" style="edgeStyle=none;rounded=0;orthogonalLoop=1;jettySize=auto;html=1;exitX=1;exitY=0.5;exitDx=0;exitDy=0;entryX=0;entryY=0.5;entryDx=0;entryDy=0;endArrow=classicThin;endFill=1;endSize=2;" edge="1" parent="1" source="nNUtYWoHHe47jqBRKhcS-5" target="nNUtYWoHHe47jqBRKhcS-9">
          <mxGeometry relative="1" as="geometry">
            <mxPoint x="440" y="519" as="targetPoint" />
          </mxGeometry>
        </mxCell>
        <mxCell id="nNUtYWoHHe47jqBRKhcS-44" style="edgeStyle=none;rounded=0;orthogonalLoop=1;jettySize=auto;html=1;exitX=1;exitY=0.5;exitDx=0;exitDy=0;entryX=0;entryY=0.5;entryDx=0;entryDy=0;endArrow=classicThin;endFill=1;endSize=2;" edge="1" parent="1" source="nNUtYWoHHe47jqBRKhcS-5" target="nNUtYWoHHe47jqBRKhcS-10">
          <mxGeometry relative="1" as="geometry">
            <mxPoint x="440" y="519" as="targetPoint" />
          </mxGeometry>
        </mxCell>
        <mxCell id="nNUtYWoHHe47jqBRKhcS-45" style="edgeStyle=none;rounded=0;orthogonalLoop=1;jettySize=auto;html=1;exitX=1;exitY=0.5;exitDx=0;exitDy=0;entryX=0;entryY=0.5;entryDx=0;entryDy=0;endArrow=classicThin;endFill=1;endSize=2;" edge="1" parent="1" source="nNUtYWoHHe47jqBRKhcS-5" target="nNUtYWoHHe47jqBRKhcS-11">
          <mxGeometry relative="1" as="geometry">
            <mxPoint x="440" y="519" as="targetPoint" />
          </mxGeometry>
        </mxCell>
        <mxCell id="nNUtYWoHHe47jqBRKhcS-47" style="edgeStyle=none;rounded=0;orthogonalLoop=1;jettySize=auto;html=1;endArrow=classicThin;endFill=1;endSize=2;exitX=1;exitY=0.5;exitDx=0;exitDy=0;entryX=0.002;entryY=0.598;entryDx=0;entryDy=0;entryPerimeter=0;" edge="1" parent="1" source="nNUtYWoHHe47jqBRKhcS-8" target="nNUtYWoHHe47jqBRKhcS-15">
          <mxGeometry relative="1" as="geometry">
            <mxPoint x="550" y="606" as="targetPoint" />
          </mxGeometry>
        </mxCell>
        <mxCell id="nNUtYWoHHe47jqBRKhcS-55" style="edgeStyle=none;rounded=0;orthogonalLoop=1;jettySize=auto;html=1;entryX=0;entryY=0.5;entryDx=0;entryDy=0;endArrow=classicThin;endFill=1;endSize=2;exitX=1;exitY=0.5;exitDx=0;exitDy=0;" edge="1" parent="1" source="nNUtYWoHHe47jqBRKhcS-11" target="nNUtYWoHHe47jqBRKhcS-16">
          <mxGeometry relative="1" as="geometry" />
        </mxCell>
        <mxCell id="nNUtYWoHHe47jqBRKhcS-48" style="edgeStyle=none;rounded=0;orthogonalLoop=1;jettySize=auto;html=1;entryX=0;entryY=0.5;entryDx=0;entryDy=0;endArrow=classicThin;endFill=1;endSize=2;exitX=1;exitY=0.5;exitDx=0;exitDy=0;" edge="1" parent="1" source="nNUtYWoHHe47jqBRKhcS-8" target="nNUtYWoHHe47jqBRKhcS-16">
          <mxGeometry relative="1" as="geometry" />
        </mxCell>
        <mxCell id="nNUtYWoHHe47jqBRKhcS-50" style="edgeStyle=none;rounded=0;orthogonalLoop=1;jettySize=auto;html=1;endArrow=classicThin;endFill=1;endSize=2;exitX=1;exitY=0.5;exitDx=0;exitDy=0;" edge="1" parent="1" source="nNUtYWoHHe47jqBRKhcS-9">
          <mxGeometry relative="1" as="geometry">
            <mxPoint x="478.26017421230836" y="575.8411987562029" as="sourcePoint" />
            <mxPoint x="550" y="609" as="targetPoint" />
          </mxGeometry>
        </mxCell>
        <mxCell id="nNUtYWoHHe47jqBRKhcS-51" style="edgeStyle=none;rounded=0;orthogonalLoop=1;jettySize=auto;html=1;endArrow=classicThin;endFill=1;endSize=2;exitX=1;exitY=0.5;exitDx=0;exitDy=0;entryX=0;entryY=0.5;entryDx=0;entryDy=0;" edge="1" parent="1" source="nNUtYWoHHe47jqBRKhcS-9" target="nNUtYWoHHe47jqBRKhcS-16">
          <mxGeometry relative="1" as="geometry">
            <mxPoint x="478.26017421230836" y="575.8411987562029" as="sourcePoint" />
            <mxPoint x="550" y="609" as="targetPoint" />
          </mxGeometry>
        </mxCell>
        <mxCell id="nNUtYWoHHe47jqBRKhcS-60" style="edgeStyle=none;rounded=0;orthogonalLoop=1;jettySize=auto;html=1;entryX=0;entryY=0.5;entryDx=0;entryDy=0;endArrow=classicThin;endFill=1;endSize=2;exitX=1;exitY=0.5;exitDx=0;exitDy=0;" edge="1" parent="1" source="nNUtYWoHHe47jqBRKhcS-14" target="nNUtYWoHHe47jqBRKhcS-17">
          <mxGeometry relative="1" as="geometry" />
        </mxCell>
        <mxCell id="nNUtYWoHHe47jqBRKhcS-53" style="edgeStyle=none;rounded=0;orthogonalLoop=1;jettySize=auto;html=1;endArrow=classicThin;endFill=1;endSize=2;exitX=1;exitY=0.5;exitDx=0;exitDy=0;entryX=-0.012;entryY=0.569;entryDx=0;entryDy=0;entryPerimeter=0;" edge="1" parent="1" source="nNUtYWoHHe47jqBRKhcS-10" target="nNUtYWoHHe47jqBRKhcS-15">
          <mxGeometry relative="1" as="geometry">
            <mxPoint x="550" y="629" as="targetPoint" />
          </mxGeometry>
        </mxCell>
        <mxCell id="nNUtYWoHHe47jqBRKhcS-62" style="edgeStyle=none;rounded=0;orthogonalLoop=1;jettySize=auto;html=1;endArrow=classicThin;endFill=1;endSize=2;entryX=0;entryY=0.5;entryDx=0;entryDy=0;exitX=1;exitY=0.5;exitDx=0;exitDy=0;" edge="1" parent="1" source="nNUtYWoHHe47jqBRKhcS-15" target="nNUtYWoHHe47jqBRKhcS-17">
          <mxGeometry relative="1" as="geometry" />
        </mxCell>
        <mxCell id="nNUtYWoHHe47jqBRKhcS-54" style="edgeStyle=none;rounded=0;orthogonalLoop=1;jettySize=auto;html=1;entryX=0;entryY=0.5;entryDx=0;entryDy=0;endArrow=classicThin;endFill=1;endSize=2;exitX=1;exitY=0.5;exitDx=0;exitDy=0;" edge="1" parent="1" source="nNUtYWoHHe47jqBRKhcS-10" target="nNUtYWoHHe47jqBRKhcS-16">
          <mxGeometry relative="1" as="geometry" />
        </mxCell>
        <mxCell id="nNUtYWoHHe47jqBRKhcS-56" style="edgeStyle=none;rounded=0;orthogonalLoop=1;jettySize=auto;html=1;endArrow=classicThin;endFill=1;endSize=2;exitX=1;exitY=0.5;exitDx=0;exitDy=0;" edge="1" parent="1" source="nNUtYWoHHe47jqBRKhcS-11">
          <mxGeometry relative="1" as="geometry">
            <mxPoint x="480" y="719" as="sourcePoint" />
            <mxPoint x="550" y="609" as="targetPoint" />
          </mxGeometry>
        </mxCell>
        <mxCell id="nNUtYWoHHe47jqBRKhcS-57" style="edgeStyle=none;rounded=0;orthogonalLoop=1;jettySize=auto;html=1;endArrow=classicThin;endFill=1;endSize=2;exitX=1;exitY=0.5;exitDx=0;exitDy=0;entryX=0;entryY=0.5;entryDx=0;entryDy=0;" edge="1" parent="1" source="nNUtYWoHHe47jqBRKhcS-11" target="nNUtYWoHHe47jqBRKhcS-14">
          <mxGeometry relative="1" as="geometry">
            <mxPoint x="480" y="719" as="sourcePoint" />
            <mxPoint x="550" y="609" as="targetPoint" />
          </mxGeometry>
        </mxCell>
        <mxCell id="nNUtYWoHHe47jqBRKhcS-61" style="edgeStyle=none;rounded=0;orthogonalLoop=1;jettySize=auto;html=1;entryX=0;entryY=0.5;entryDx=0;entryDy=0;endArrow=classicThin;endFill=1;endSize=2;exitX=1;exitY=0.5;exitDx=0;exitDy=0;" edge="1" parent="1" source="nNUtYWoHHe47jqBRKhcS-14" target="nNUtYWoHHe47jqBRKhcS-18">
          <mxGeometry relative="1" as="geometry" />
        </mxCell>
        <mxCell id="nNUtYWoHHe47jqBRKhcS-59" style="edgeStyle=none;rounded=0;orthogonalLoop=1;jettySize=auto;html=1;entryX=0;entryY=0.5;entryDx=0;entryDy=0;endArrow=classicThin;endFill=1;endSize=2;exitX=0.975;exitY=0.635;exitDx=0;exitDy=0;exitPerimeter=0;" edge="1" parent="1" source="nNUtYWoHHe47jqBRKhcS-16" target="nNUtYWoHHe47jqBRKhcS-17">
          <mxGeometry relative="1" as="geometry" />
        </mxCell>
        <mxCell id="nNUtYWoHHe47jqBRKhcS-58" style="edgeStyle=none;rounded=0;orthogonalLoop=1;jettySize=auto;html=1;entryX=0;entryY=0.5;entryDx=0;entryDy=0;endArrow=classicThin;endFill=1;endSize=2;exitX=1.005;exitY=0.595;exitDx=0;exitDy=0;exitPerimeter=0;" edge="1" parent="1" source="nNUtYWoHHe47jqBRKhcS-16" target="nNUtYWoHHe47jqBRKhcS-18">
          <mxGeometry relative="1" as="geometry" />
        </mxCell>
        <mxCell id="nNUtYWoHHe47jqBRKhcS-63" style="edgeStyle=none;rounded=0;orthogonalLoop=1;jettySize=auto;html=1;endArrow=classicThin;endFill=1;endSize=2;entryX=0;entryY=0.5;entryDx=0;entryDy=0;exitX=1;exitY=0.5;exitDx=0;exitDy=0;" edge="1" parent="1" source="nNUtYWoHHe47jqBRKhcS-15" target="nNUtYWoHHe47jqBRKhcS-18">
          <mxGeometry relative="1" as="geometry" />
        </mxCell>
      </root>
    </mxGraphModel>
  </diagram>
</mxfile>
